PathFileType	4	(X/Y/Z)	 s07c0001.trc
DataRate	CameraRate	NumFrames	NumMarkers	Units	OrigDataRate	OrigDataStartFrame	OrigNumFrames
200	200	6	49	mm	200	251	2000
Frame#	Time	racr			lacr			c7			jug			rlel			rdr			llel			ldr			s2			lic			ric			lasi			rasi			rpsi			lpsi			rgt			lgt			rth1			rth2			rth3			rth4			rlfc			rmfc			rsh1			rsh2			rsh3			rsh4			rlmal			rmmal			rcal			rtoe			rmt5			rmt1			lth1			lth2			lth4			lth3			llfc			lmfc			lsh1			lsh2			lsh3			lsh4			llmal			lmmal			lcal			ltoe			lmt1			lmt5			
		X1	Y1	Z1	X2	Y2	Z2	X3	Y3	Z3	X4	Y4	Z4	X5	Y5	Z5	X6	Y6	Z6	X7	Y7	Z7	X8	Y8	Z8	X9	Y9	Z9	X10	Y10	Z10	X11	Y11	Z11	X12	Y12	Z12	X13	Y13	Z13	X14	Y14	Z14	X15	Y15	Z15	X16	Y16	Z16	X17	Y17	Z17	X18	Y18	Z18	X19	Y19	Z19	X20	Y20	Z20	X21	Y21	Z21	X22	Y22	Z22	X23	Y23	Z23	X24	Y24	Z24	X25	Y25	Z25	X26	Y26	Z26	X27	Y27	Z27	X28	Y28	Z28	X29	Y29	Z29	X30	Y30	Z30	X31	Y31	Z31	X32	Y32	Z32	X33	Y33	Z33	X34	Y34	Z34	X35	Y35	Z35	X36	Y36	Z36	X37	Y37	Z37	X38	Y38	Z38	X39	Y39	Z39	X40	Y40	Z40	X41	Y41	Z41	X42	Y42	Z42	X43	Y43	Z43	X44	Y44	Z44	X45	Y45	Z45	X46	Y46	Z46	X47	Y47	Z47	X48	Y48	Z48	X49	Y49	Z49	
251	1.2550	188.841503	1567.922144	565.364923	218.463952	1569.033418	195.888084	158.608976	1607.915026	376.783895	278.922501	1515.927420	387.596718	253.420670	1221.774072	694.861140	402.660676	983.024258	807.277872	292.899551	1214.963507	98.106567	447.367242	977.040254	-5.449925	123.680564	1061.569457	367.669474	267.163559	1144.162561	231.958217	255.709911	1131.646772	536.339084	334.685401	1075.212606	265.534850	304.011289	1072.484615	528.858865	134.092848	1095.909556	424.301735	152.973781	1103.447707	312.577253	219.298622	975.610394	564.411242	252.422755	973.724946	214.479995	227.064069	846.975995	566.407281	249.401194	761.801089	558.584527	228.489308	679.138142	549.179262	285.741693	763.536923	550.995920	225.818173	537.756471	514.347658	234.907051	527.223741	418.616522	184.908831	400.420601	530.630149	201.378549	314.105289	510.574801	172.309828	232.798184	504.430294	224.613988	317.869953	478.053152	159.100360	92.014289	488.683720	199.805765	105.726222	410.534177	113.972777	41.468620	447.069146	395.560523	85.752337	505.357275	311.094387	36.028015	557.055226	328.257660	43.816096	449.513334	261.197972	856.455743	200.183532	283.261883	771.468443	207.124601	317.803223	771.912965	221.630117	259.070130	686.183248	214.706780	252.440101	531.389575	242.239509	246.250955	515.285019	330.170302	216.577057	396.631395	216.700085	232.145336	314.264036	237.633855	204.215145	227.478214	233.138741	241.933423	317.378037	277.846648	190.875169	91.593479	243.812918	225.366288	111.760177	325.008936	141.601928	37.826211	280.127469	423.339409	92.617958	249.235748	359.175452	47.476550	297.325419	345.443613	52.868542	192.036939	
252	1.2600	188.845433	1567.910380	565.379869	218.482895	1569.047736	195.896764	158.627212	1607.897919	376.779156	278.930754	1515.924307	387.620232	253.445992	1221.758899	694.872209	402.693953	983.036226	807.301027	292.909678	1214.979488	98.142733	447.385200	977.056013	-5.432674	123.689003	1061.574920	367.687237	267.161612	1144.160215	231.973762	255.724604	1131.652357	536.338220	334.686218	1075.212723	265.535804	304.038142	1072.486065	528.861067	134.112186	1095.889596	424.322953	152.981225	1103.443475	312.597493	219.321595	975.610539	564.425577	252.430576	973.715385	214.494490	227.100561	846.980798	566.397637	249.430484	761.817284	558.595474	228.526709	679.143305	549.180564	285.759096	763.542672	551.008254	225.843458	537.747294	514.349258	234.909307	527.219355	418.617936	184.934557	400.425315	530.636799	201.407609	314.099793	510.573445	172.330544	232.787707	504.431737	224.641064	317.837496	478.051694	159.129575	92.027946	488.670371	199.823726	105.730107	410.541140	113.992336	41.487432	447.079753	395.575605	85.754272	505.374844	311.087159	36.025489	557.043282	328.279304	43.827764	449.518616	261.197003	856.460764	200.195813	283.263834	771.475437	207.103412	317.820096	771.912395	221.670694	259.072407	686.169019	214.714169	252.415176	531.403969	242.224552	246.298231	515.277770	330.170707	216.550994	396.625681	216.692561	232.161683	314.265951	237.645873	204.312542	227.380772	233.184581	241.937032	317.364169	277.855311	190.890322	91.602819	243.821595	225.348665	111.780507	325.002665	141.609929	37.830754	280.146557	423.356426	92.625300	249.249576	359.136297	47.336561	297.308549	345.465430	52.868910	192.042221	
253	1.2650	188.833568	1567.921950	565.393635	218.465802	1569.051460	195.898589	158.598622	1607.918084	376.802696	278.905559	1515.924350	387.610473	253.432024	1221.774589	694.901109	402.701062	983.070077	807.332664	292.838940	1215.021635	97.699447	447.382592	977.054729	-5.426234	123.700029	1061.563140	367.699051	267.139569	1144.148633	231.962881	255.744220	1131.651347	536.350150	334.674883	1075.233945	265.524532	304.044465	1072.490795	528.869696	134.106455	1095.883260	424.340211	152.968179	1103.421236	312.605692	219.338119	975.606008	564.438205	252.431125	973.704568	214.495980	227.119388	846.986016	566.403194	249.450526	761.804660	558.590035	228.552603	679.138161	549.183676	285.798166	763.541916	550.995459	225.898035	537.769984	514.367880	234.920148	527.226387	418.628843	184.954319	400.424846	530.643880	201.707805	314.209521	510.809327	172.351163	232.779309	504.428158	224.673244	318.101600	478.253484	159.147731	92.039771	488.673524	199.795239	105.737760	410.534580	113.996130	41.496888	447.073640	395.576292	85.768386	505.373556	311.087851	36.024862	557.043489	328.257276	43.813272	449.521234	261.198386	856.458872	200.194468	283.261903	771.468472	207.124646	317.816010	771.912521	221.645829	259.083224	686.176259	214.716791	252.439152	531.416420	242.239250	246.293589	515.286174	330.168510	216.566905	396.626789	216.698837	232.162067	314.261518	237.669308	204.206465	227.487094	233.133662	241.951235	317.354389	277.854193	190.892643	91.609328	243.815207	225.369030	111.760388	325.020340	141.603440	37.832153	280.146055	423.358806	92.617922	249.248382	359.181383	47.478166	297.342892	345.463062	52.879930	192.051150	
254	1.2700	188.821574	1567.942405	565.409280	218.432855	1569.045539	195.916604	158.578633	1607.905084	376.826465	278.891890	1515.922632	387.608250	253.456863	1221.782375	694.902748	402.706614	983.082273	807.359978	292.923160	1214.996225	98.119256	447.380945	977.078571	-5.424765	123.701088	1061.557584	367.713310	267.141098	1144.147824	231.989090	255.742753	1131.646650	536.351629	334.685709	1075.219733	265.538652	304.058523	1072.495205	528.877623	134.132018	1095.885039	424.359791	152.975440	1103.432663	312.634230	219.368935	975.602281	564.445394	252.417353	973.714313	214.511871	227.162503	846.981633	566.404160	249.478210	761.801870	558.585718	228.589816	679.137069	549.180911	285.826723	763.551363	551.015807	225.924159	537.758298	514.372811	234.965534	527.233929	418.612989	184.992026	400.430165	530.648030	201.724969	314.213325	510.806561	172.359463	232.783451	504.440619	224.696417	318.095869	478.252284	159.158653	92.039326	488.675813	199.805105	105.736902	410.526642	113.990554	41.492056	447.065949	395.573804	85.768294	505.387815	311.103099	36.010966	557.047828	328.258678	43.811735	449.516709	261.194931	856.461611	200.206777	283.261911	771.468478	207.124676	317.804199	771.932172	221.621460	259.066077	686.175968	214.728742	252.457232	531.409881	242.227166	246.306558	515.274366	330.183681	216.570253	396.627881	216.710189	232.154966	314.272420	237.646922	204.329054	227.377725	233.188786	241.941862	317.373297	277.842283	190.880701	91.611470	243.810283	225.345373	111.772660	325.018658	141.615826	37.823344	280.142899	423.344988	92.619231	249.225375	359.126842	47.381856	297.303159	345.457735	52.882027	192.045500	
255	1.2750	188.828301	1567.893761	565.421049	218.434772	1569.063295	195.923521	158.577289	1607.907216	376.825334	278.877025	1515.916863	387.632837	253.446063	1221.777903	694.933039	402.733931	983.102767	807.389039	292.906758	1215.005297	98.144243	447.385618	977.083070	-5.415356	123.691641	1061.566403	367.735475	267.115149	1144.149866	231.986147	255.763242	1131.645725	536.359884	334.697819	1075.220628	265.554354	304.080468	1072.495896	528.879671	134.129894	1095.869590	424.380049	152.978490	1103.414114	312.635916	219.382514	975.599464	564.452908	252.417152	973.708944	214.530737	227.184172	846.985210	566.415283	249.518761	761.816481	558.585792	228.622616	679.141538	549.202109	285.868017	763.561808	551.013647	225.947463	537.767759	514.366207	235.000242	527.225931	418.633078	185.014659	400.420313	530.655859	201.743446	314.237320	510.839692	172.368898	232.788525	504.438698	224.694392	318.094648	478.261489	159.154434	92.027392	488.672337	199.806513	105.736402	410.531959	113.987897	41.489385	447.072671	395.588553	85.757661	505.362841	311.057275	36.018058	557.056467	328.270224	43.802023	449.503681	261.194870	856.460690	200.211438	283.254980	771.482372	207.108622	317.805060	771.930142	221.652359	259.072076	686.174189	214.729187	252.443009	531.410385	242.238430	246.303760	515.284161	330.184565	216.527296	396.703346	216.661674	232.174336	314.267575	237.670895	204.234468	227.482044	233.146525	241.948535	317.358423	277.862523	190.890769	91.601100	243.831031	225.376878	111.761583	325.016059	141.602814	37.830245	280.155155	423.341320	92.623567	249.233975	359.162686	47.472500	297.310829	345.435469	52.862911	192.044791	
256	1.2800	188.808417	1567.914771	565.434491	218.417641	1569.047461	195.957021	158.546237	1607.908388	376.865309	278.876970	1515.918886	387.632815	253.458311	1221.782373	694.946036	402.745028	983.095522	807.405642	292.913940	1215.016442	98.171897	447.385181	977.090036	-5.405082	123.701248	1061.553096	367.751455	267.115810	1144.142725	231.988626	255.784208	1131.645185	536.372403	334.666073	1075.232997	265.544152	304.084777	1072.497388	528.883858	134.126776	1095.858703	424.380874	152.978663	1103.403639	312.658291	219.410848	975.597496	564.464624	252.404115	973.719560	214.520692	227.211748	846.978522	566.425200	249.542954	761.812578	558.596691	228.655127	679.135349	549.201563	285.872390	763.548996	551.011011	225.978541	537.766276	514.375438	235.032578	527.225629	418.636189	185.048507	400.430572	530.652229	201.780850	314.204118	510.819710	172.380727	232.779044	504.443589	224.728296	318.078029	478.243860	159.133717	92.032258	488.674346	199.805010	105.736516	410.527768	114.019284	41.447105	447.096127	395.574237	85.749737	505.350267	311.062381	36.020825	557.062327	328.260423	43.802171	449.524942	261.193454	856.472785	200.217645	283.279476	771.467284	207.155594	317.807885	771.905869	221.649457	259.085559	686.182229	214.751535	252.474856	531.403913	242.254219	246.303326	515.278676	330.197185	216.577543	396.642777	216.732880	232.167134	314.265876	237.670277	204.214523	227.486190	233.145091	241.944041	317.363307	277.852184	190.880869	91.607581	243.832947	225.356474	111.763711	325.021029	141.627409	37.824799	280.152611	423.344884	92.628681	249.236617	359.170844	47.485277	297.333084	345.455202	52.869596	192.042388	
